<?xml version="1.0" standalone="no"?>
<!DOCTYPE svg PUBLIC "-//W3C//DTD SVG 20010904//EN"
 "http://www.w3.org/TR/2001/REC-SVG-20010904/DTD/svg10.dtd">
<svg version="1.0" xmlns="http://www.w3.org/2000/svg"
 width="100%" height="100%" viewBox="150 0 1898.000000 751.000000"
 preserveAspectRatio="xMidYMid slice">

<g transform="translate(0.000000,751.000000) scale(0.100000,-0.100000)"
fill="#ffffff" stroke="none">
<path d="M3795 6013 c-20 -19 -27 23 80 -493 411 -1981 411 -1982 432 -1997
54 -40 85 7 166 254 38 114 210 636 382 1158 172 523 320 973 328 1000 14 51
13 74 -7 87 -6 4 -316 8 -688 8 -616 0 -678 -1 -693 -17z"/>
<path d="M3265 5771 c-16 -11 -271 -159 -565 -329 -294 -171 -546 -321 -561
-334 l-27 -23 283 -390 c250 -343 323 -435 346 -435 9 0 50 93 249 565 100
237 226 535 281 664 54 129 99 244 99 256 0 47 -52 59 -105 26z"/>
<path d="M5596 5658 c-8 -13 -200 -520 -426 -1128 -633 -1699 -619 -1660 -587
-1660 22 0 74 61 463 535 199 242 576 701 838 1020 262 319 479 591 483 604 3
13 2 31 -4 40 -9 15 -396 352 -612 532 -100 84 -130 95 -155 57z"/>
<path d="M3447 4972 c-14 -16 -79 -182 -343 -884 -24 -65 -44 -130 -44 -147 0
-22 100 -165 458 -652 708 -965 679 -927 723 -949 21 -11 41 -20 44 -20 15 0
0 78 -49 247 -196 675 -224 772 -376 1293 -38 129 -116 399 -175 600 -58 201
-115 395 -126 432 -11 37 -27 74 -35 83 -21 20 -57 19 -77 -3z"/>
<path d="M16370 4453 c-14 -2 -54 -13 -90 -25 -271 -86 -429 -359 -430 -740
-1 -324 129 -596 335 -705 198 -105 466 -105 676 0 63 31 64 33 67 76 5 71 2
72 -91 25 -362 -181 -681 -8 -761 415 -21 109 -21 308 0 409 63 306 268 485
510 443 159 -28 234 -93 234 -203 0 -27 2 -28 50 -28 l50 0 0 123 c0 67 -4
128 -9 136 -15 23 -323 81 -426 80 -49 -1 -101 -4 -115 -6z"/>
<path d="M13550 4280 l0 -140 50 0 49 0 3 78 3 77 188 3 187 2 0 -624 0 -624
-65 -7 -65 -7 0 -44 0 -44 225 0 225 0 0 44 0 43 -60 7 -60 7 0 625 0 624 188
-2 187 -3 3 -77 3 -78 49 0 50 0 0 140 0 140 -580 0 -580 0 0 -140z"/>
<path d="M14812 4373 l3 -48 60 -5 60 -5 3 -632 2 -631 -65 -7 -65 -7 0 -44 0
-44 460 0 460 0 0 130 0 130 -50 0 -50 0 0 -75 0 -75 -245 0 -245 0 2 293 3
292 153 3 152 3 0 -24 c0 -14 3 -39 6 -56 6 -28 10 -31 45 -31 l39 0 0 170 0
170 -39 0 -39 0 -8 -57 -9 -58 -152 -3 -153 -3 0 276 0 275 225 0 225 0 0 -65
0 -65 50 0 50 0 0 120 0 120 -441 0 -440 0 3 -47z"/>
<path d="M17104 4406 c-3 -8 -4 -29 -2 -48 3 -33 3 -33 63 -38 l60 -5 3 -631
2 -631 -37 -7 c-21 -3 -50 -6 -65 -6 -26 0 -28 -3 -28 -45 l0 -45 225 0 225 0
0 44 0 44 -60 7 -60 7 0 299 0 299 305 0 305 0 0 -300 0 -299 -60 -7 -60 -7 0
-43 0 -44 225 0 225 0 0 44 0 43 -60 7 -60 7 0 634 0 635 44 0 c68 0 76 6 76
56 l0 44 -226 0 -225 0 3 -47 3 -48 55 -5 55 -5 3 -278 2 -277 -302 2 -303 3
0 275 0 275 58 3 57 3 0 49 0 50 -220 0 c-180 0 -222 -3 -226 -14z"/>
<path d="M12695 4389 c-199 -39 -333 -133 -440 -310 -166 -275 -160 -603 18
-877 80 -124 179 -202 315 -249 68 -24 92 -27 207 -28 83 0 148 5 180 14 238
67 423 288 481 575 49 240 -39 536 -212 711 -62 63 -155 121 -233 146 -76 24
-237 34 -316 18z m186 -149 c143 -27 280 -131 351 -265 50 -96 68 -169 75
-307 5 -107 4 -123 -20 -200 -35 -110 -88 -197 -164 -268 -261 -244 -665 -127
-789 228 -64 184 -53 365 34 542 97 198 307 309 513 270z"/>
<path d="M6943 4370 l-23 -9 0 -706 0 -705 70 0 70 0 0 564 c0 311 4 567 8
570 11 6 21 -8 414 -559 400 -560 402 -563 434 -575 33 -13 81 -13 89 0 5 8
10 1124 6 1368 l-1 52 -70 0 -70 0 0 -551 c0 -436 -3 -550 -12 -547 -7 2 -185
245 -395 539 -211 293 -392 542 -404 552 -23 18 -79 22 -116 7z"/>
<path d="M10928 4374 c-17 -5 -18 -48 -18 -715 l0 -709 70 0 70 0 0 275 0 275
165 0 c125 0 173 -4 194 -14 18 -10 80 -92 177 -237 81 -121 166 -241 187
-265 37 -43 40 -44 95 -43 118 2 124 -19 -88 293 -105 154 -190 282 -190 286
0 3 26 15 58 25 196 67 295 224 279 445 -12 182 -123 313 -310 367 -40 12
-120 16 -362 19 -170 1 -318 0 -327 -2z m637 -166 c135 -28 204 -108 213 -244
9 -134 -45 -226 -167 -283 -56 -26 -56 -26 -306 -26 l-250 0 0 280 0 280 105
6 c130 8 338 1 405 -13z"/>
<path d="M8350 3660 l0 -710 465 0 465 0 0 70 0 70 -390 0 -390 0 0 250 0 250
345 0 345 0 0 75 0 75 -345 0 -345 0 0 245 0 245 385 0 385 0 0 70 0 70 -460
0 -460 0 0 -710z"/>
<path d="M9522 3873 c4 -436 6 -505 21 -558 72 -249 229 -378 477 -392 174 -9
311 36 410 136 67 68 100 128 136 246 l28 90 1 485 0 485 -72 3 -73 3 0 -443
c0 -462 -5 -538 -41 -635 -30 -79 -113 -161 -194 -193 -70 -27 -212 -33 -282
-12 -102 31 -193 124 -234 241 -23 65 -24 74 -27 554 l-3 487 -75 0 -75 0 3
-497z"/>
<path d="M6922 1963 c6 -284 13 -319 87 -393 62 -62 126 -84 244 -84 80 1 93
4 154 35 78 40 125 99 142 179 6 28 11 152 11 275 l0 225 -75 0 -75 0 0 -232
c0 -214 -2 -235 -21 -274 -28 -59 -89 -89 -165 -81 -67 7 -106 34 -130 89 -15
36 -18 81 -22 271 l-4 227 -75 0 -75 0 4 -237z"/>
<path d="M13440 1849 l0 -350 248 3 c243 3 249 3 297 29 28 14 60 39 71 57 59
88 26 210 -70 256 l-34 16 43 43 c71 71 74 161 6 228 -59 59 -109 69 -353 69
l-208 0 0 -351z m410 223 c67 -33 63 -125 -8 -154 -15 -6 -76 -11 -137 -12
l-110 -1 -3 93 -3 92 113 0 c88 0 121 -4 148 -18z m25 -286 c39 -17 55 -42 55
-88 -1 -73 -35 -88 -204 -88 l-136 0 0 95 0 95 125 0 c86 0 136 -5 160 -14z"/>
<path d="M14180 2140 l0 -59 154 -3 154 -3 -74 -83 c-73 -81 -74 -84 -74 -136
l0 -54 79 -3 c90 -5 117 -20 127 -75 8 -42 -13 -77 -58 -100 -47 -25 -170 -15
-238 18 l-51 25 -25 -49 c-14 -28 -23 -56 -20 -63 7 -19 105 -53 187 -66 81
-12 179 0 238 31 106 54 149 175 100 277 -24 50 -59 77 -128 101 l-49 17 84
95 c79 90 83 97 84 143 l0 47 -245 0 -245 0 0 -60z"/>
<path d="M7962 2026 c-19 -6 -44 -22 -57 -34 -30 -29 -35 -28 -35 8 l0 30 -70
0 -70 0 0 -265 0 -265 74 0 75 0 3 175 3 175 31 31 c36 36 103 48 144 27 50
-26 60 -67 60 -245 l0 -163 69 0 69 0 4 163 c4 184 14 218 73 243 63 26 120
13 152 -35 15 -22 19 -54 21 -198 l4 -173 69 0 69 0 0 183 c0 100 -5 199 -10
219 -23 83 -102 137 -199 138 -73 0 -124 -17 -170 -56 l-38 -33 -24 26 c-53
57 -165 79 -247 49z"/>
<path d="M8887 2021 c-86 -28 -90 -34 -64 -87 15 -31 26 -44 37 -40 8 2 33 12
55 20 110 42 235 -7 223 -87 -3 -21 -9 -22 -128 -27 -140 -7 -177 -19 -211
-73 -29 -46 -23 -136 12 -173 76 -83 251 -86 316 -6 l23 27 0 -37 0 -38 70 0
70 0 0 160 c0 236 -20 300 -110 350 -62 34 -207 39 -293 11z m253 -335 c0 -37
-5 -48 -31 -70 -37 -32 -69 -40 -116 -33 -48 8 -73 33 -73 72 0 56 31 72 148
74 l72 1 0 -44z"/>
<path d="M9975 2028 c-16 -6 -45 -21 -62 -35 l-33 -24 0 30 0 31 -70 0 -70 0
0 -265 0 -265 69 0 69 0 4 163 c3 139 6 167 23 194 25 43 76 67 127 60 83 -11
98 -51 98 -264 l0 -153 70 0 70 0 0 153 c0 129 3 158 20 195 29 64 105 90 169
58 47 -25 55 -56 59 -238 l4 -168 69 0 69 0 0 184 c0 197 -9 247 -53 295 -34
37 -95 61 -157 61 -77 0 -125 -16 -169 -55 l-38 -35 -24 27 c-52 56 -163 79
-244 51z"/>
<path d="M10888 2017 c-37 -13 -70 -26 -73 -29 -3 -3 4 -27 17 -52 15 -33 27
-46 38 -42 8 2 33 12 55 20 61 23 135 20 176 -7 36 -24 56 -64 46 -91 -5 -13
-25 -16 -119 -16 -167 -1 -226 -33 -236 -129 -6 -66 2 -94 38 -128 39 -37 82
-51 153 -52 68 -1 124 19 154 57 l23 27 0 -37 0 -38 71 0 71 0 -4 188 c-3 175
-5 190 -28 237 -27 53 -70 88 -129 105 -57 16 -179 11 -244 -10z m262 -326 c0
-70 -68 -120 -147 -108 -48 8 -73 33 -73 72 0 56 31 72 148 74 l72 1 0 -39z"/>
<path d="M11685 2021 c-22 -10 -49 -28 -59 -40 -27 -30 -36 -26 -36 14 l0 35
-65 0 -65 0 0 -265 0 -265 69 0 69 0 4 158 c2 130 6 163 21 185 25 39 64 61
116 67 l46 5 3 63 3 62 -33 0 c-18 0 -51 -9 -73 -19z"/>
<path d="M12039 2024 c-56 -17 -132 -82 -161 -138 -17 -32 -22 -58 -22 -121 0
-63 5 -89 22 -121 31 -61 105 -121 170 -140 73 -21 182 -15 238 14 42 22 108
88 100 101 -3 4 -28 18 -55 31 l-51 24 -28 -27 c-72 -69 -195 -49 -236 37 -35
74 -12 178 48 215 67 42 134 36 189 -17 l27 -26 55 27 c49 24 54 29 45 46 -17
33 -88 87 -129 99 -51 16 -155 14 -212 -4z"/>
<path d="M12577 2020 c-86 -27 -90 -33 -64 -86 15 -31 26 -44 37 -40 8 2 33
12 55 20 61 23 135 20 176 -7 36 -24 56 -64 46 -91 -5 -13 -25 -16 -119 -16
-173 -1 -228 -33 -236 -140 -8 -104 50 -160 175 -168 75 -5 129 11 165 51 l28
29 0 -36 0 -36 71 0 71 0 -4 188 c-3 175 -5 190 -28 237 -27 53 -70 88 -129
105 -57 16 -179 11 -244 -10z m253 -328 c0 -66 -54 -112 -134 -112 -70 0 -114
73 -71 120 21 23 39 27 133 29 l72 1 0 -38z"/>
</g>
</svg>
